<svg width="48" height="48" viewBox="0 0 48 48" fill="none" xmlns="http://www.w3.org/2000/svg">
<circle cx="24" cy="24" r="24" fill="#F6F7FB"/>
<path d="M28.5 15H19.5C17.0147 15 15 17.0147 15 19.5V28.5C15 30.9853 17.0147 33 19.5 33H28.5C30.9853 33 33 30.9853 33 28.5V19.5C33 17.0147 30.9853 15 28.5 15Z" stroke="black" stroke-width="2" stroke-linecap="round" stroke-linejoin="round"/>
<path d="M27.6 23.4325C27.7111 24.1816 27.5832 24.9465 27.2344 25.6187C26.8857 26.2908 26.3339 26.8358 25.6575 27.1762C24.9811 27.5167 24.2146 27.6352 23.467 27.5149C22.7194 27.3946 22.0288 27.0416 21.4934 26.5062C20.958 25.9708 20.605 25.2801 20.4847 24.5325C20.3644 23.7849 20.4829 23.0184 20.8233 22.3421C21.1638 21.6657 21.7088 21.1139 22.3809 20.7652C23.053 20.4164 23.818 20.2885 24.567 20.3995C25.3311 20.5128 26.0384 20.8689 26.5846 21.415C27.1307 21.9612 27.4867 22.6685 27.6 23.4325Z" stroke="black" stroke-width="2" stroke-linecap="round" stroke-linejoin="round"/>
<path d="M28.9502 19.0503H28.9584" stroke="black" stroke-width="2" stroke-linecap="round" stroke-linejoin="round"/>
</svg>
